<svg xmlns="http://www.w3.org/2000/svg" viewBox="0 0 64 64">
  <rect width="64" height="64" rx="14" fill="#1d4ed8"/>
  <circle cx="32" cy="32" r="23" fill="#f8fafc"/>
  <path d="M11 32c7-1 14 1 21 7 6 5 9 11 10 16" fill="none" stroke="#1d4ed8" stroke-width="5" stroke-linecap="round"/>
  <path d="M20 14c8 5 13 11 15 18 2 6 2 12 0 19" fill="none" stroke="#1d4ed8" stroke-width="5" stroke-linecap="round"/>
  <path d="M53 21c-9-2-17 0-24 6-5 5-9 11-11 20" fill="none" stroke="#1d4ed8" stroke-width="5" stroke-linecap="round"/>
  <path d="M50 47c-4-9-10-15-18-18-7-3-14-3-21 0" fill="none" stroke="#1d4ed8" stroke-width="5" stroke-linecap="round"/>
</svg>
